G04*
G04 #@! TF.GenerationSoftware,Altium Limited,Altium Designer,18.1.9 (240)*
G04*
G04 Layer_Color=255*
%FSLAX25Y25*%
%MOIN*%
G70*
G01*
G75*
%ADD35C,0.06500*%
%ADD36R,0.06500X0.06500*%
%ADD38C,0.06000*%
%ADD39R,0.06000X0.06000*%
%ADD40C,0.07100*%
%ADD46R,0.06500X0.06500*%
%ADD53C,0.09449*%
%ADD54O,0.05906X0.14567*%
%ADD55O,0.14567X0.05906*%
%ADD56O,0.16142X0.05906*%
%ADD57R,0.07400X0.07400*%
%ADD58C,0.07400*%
D35*
X193617Y449700D02*
D03*
X113000Y463100D02*
D03*
D36*
X193617Y402100D02*
D03*
D38*
X154617Y304152D02*
D03*
X149617Y314152D02*
D03*
X29400Y274152D02*
D03*
Y264152D02*
D03*
Y254152D02*
D03*
X59400D02*
D03*
Y264152D02*
D03*
Y274152D02*
D03*
Y284152D02*
D03*
D39*
X144617Y304152D02*
D03*
X29400Y284152D02*
D03*
D40*
X68400Y393400D02*
D03*
Y383400D02*
D03*
Y373400D02*
D03*
D46*
X160600Y463100D02*
D03*
D53*
X189409Y23400D02*
D03*
X179409Y13400D02*
D03*
Y33400D02*
D03*
X199409D02*
D03*
Y13400D02*
D03*
X89974Y23400D02*
D03*
X79974Y13400D02*
D03*
Y33400D02*
D03*
X99974D02*
D03*
Y13400D02*
D03*
D54*
X220102Y437917D02*
D03*
X18702Y439117D02*
D03*
D55*
X239000Y451303D02*
D03*
X37600Y452503D02*
D03*
D56*
X239000Y426500D02*
D03*
X37600Y427700D02*
D03*
D57*
X161135Y435900D02*
D03*
D58*
Y425900D02*
D03*
Y415900D02*
D03*
M02*
